<?xml version="1.0" standalone="no"?>
<!DOCTYPE svg PUBLIC "-//W3C//DTD SVG 20010904//EN"
 "http://www.w3.org/TR/2001/REC-SVG-20010904/DTD/svg10.dtd">
<svg version="1.0" xmlns="http://www.w3.org/2000/svg"
 width="300.000000pt" height="300.000000pt" viewBox="0 0 300.000000 300.000000"
 preserveAspectRatio="xMidYMid meet">
<metadata>
Created by potrace 1.14, written by Peter Selinger 2001-2017
</metadata>
<g transform="translate(0.000000,300.000000) scale(0.100000,-0.100000)"
fill="#000000" stroke="none">
<path d="M1198 2927 c-28 -10 -57 -45 -64 -76 -3 -14 -7 -31 -9 -37 -10 -35 6
-37 364 -37 222 0 356 4 362 10 26 26 3 101 -40 130 -23 15 -56 17 -309 18
-155 0 -292 -3 -304 -8z"/>
<path d="M829 2457 c-58 -15 -115 -63 -143 -119 l-26 -52 0 -960 c0 -672 3
-973 11 -1001 22 -80 124 -155 210 -155 20 0 30 -7 38 -27 25 -60 116 -94 178
-68 36 15 72 51 73 72 0 6 8 14 18 17 9 3 152 5 317 4 l300 -1 24 -38 c27 -43
66 -63 121 -63 46 0 105 37 121 77 9 21 18 27 43 27 92 0 193 73 215 157 8 29
11 319 9 1010 l-3 970 -30 48 c-21 33 -47 57 -85 79 l-55 31 -652 0 c-359 0
-667 -4 -684 -8z m204 -406 l24 -29 0 -698 c1 -750 1 -743 -49 -760 -53 -18
-77 -11 -104 31 -14 21 -16 103 -16 723 0 512 3 706 12 721 25 48 97 54 133
12z m1020 18 c50 -23 49 -11 50 -753 0 -636 -2 -698 -17 -721 -33 -50 -100
-53 -136 -7 -19 24 -20 43 -20 729 l0 705 29 29 c31 31 55 36 94 18z m-512
-402 c38 -29 39 -43 39 -556 l0 -500 -24 -27 c-33 -39 -89 -39 -123 0 l-24 28
3 512 c3 543 2 531 48 549 25 10 64 7 81 -6z"/>
</g>
</svg>
